<mxfile host="app.diagrams.net" modified="2023-11-18T18:14:27.406Z" agent="Mozilla/5.0 (Windows NT 10.0; Win64; x64) AppleWebKit/537.36 (KHTML, like Gecko) Chrome/119.0.0.0 Safari/537.36" etag="gFdr0O_yGZ8wZljSEK0e" version="22.1.3" type="github">
  <diagram name="Página-1" id="UV5yNw78bkmkeK1eMS_u">
    <mxGraphModel dx="1750" dy="943" grid="1" gridSize="10" guides="1" tooltips="1" connect="1" arrows="1" fold="1" page="1" pageScale="1" pageWidth="827" pageHeight="1169" math="0" shadow="0">
      <root>
        <mxCell id="0" />
        <mxCell id="1" parent="0" />
        <mxCell id="AcFdQYXqhO_NafQ9ZpGH-1" value="&lt;blockquote style=&quot;margin: 0 0 0 40px; border: none; padding: 0px;&quot;&gt;&lt;br&gt;&lt;/blockquote&gt;" style="shape=folder;fontStyle=1;spacingTop=10;tabWidth=40;tabHeight=14;tabPosition=left;html=1;whiteSpace=wrap;align=right;" vertex="1" parent="1">
          <mxGeometry x="80" y="230" width="310" height="550" as="geometry" />
        </mxCell>
        <mxCell id="AcFdQYXqhO_NafQ9ZpGH-2" value="Interfaces" style="text;html=1;strokeColor=none;fillColor=none;align=center;verticalAlign=middle;whiteSpace=wrap;rounded=0;" vertex="1" parent="1">
          <mxGeometry x="260" y="240" width="60" height="30" as="geometry" />
        </mxCell>
        <mxCell id="AcFdQYXqhO_NafQ9ZpGH-3" value="" style="shape=folder;fontStyle=1;spacingTop=10;tabWidth=40;tabHeight=14;tabPosition=left;html=1;whiteSpace=wrap;" vertex="1" parent="1">
          <mxGeometry x="630" y="230" width="470" height="610" as="geometry" />
        </mxCell>
        <mxCell id="AcFdQYXqhO_NafQ9ZpGH-4" value="" style="shape=folder;fontStyle=1;spacingTop=10;tabWidth=40;tabHeight=14;tabPosition=left;html=1;whiteSpace=wrap;" vertex="1" parent="1">
          <mxGeometry x="590" y="940" width="510" height="400" as="geometry" />
        </mxCell>
        <mxCell id="AcFdQYXqhO_NafQ9ZpGH-5" value="Actualizar datos" style="shape=module;align=left;spacingLeft=20;align=center;verticalAlign=top;whiteSpace=wrap;html=1;" vertex="1" parent="1">
          <mxGeometry x="95" y="270" width="90" height="50" as="geometry" />
        </mxCell>
        <mxCell id="AcFdQYXqhO_NafQ9ZpGH-6" value="Añadir direccion" style="shape=module;align=left;spacingLeft=20;align=center;verticalAlign=top;whiteSpace=wrap;html=1;" vertex="1" parent="1">
          <mxGeometry x="95" y="330" width="90" height="50" as="geometry" />
        </mxCell>
        <mxCell id="AcFdQYXqhO_NafQ9ZpGH-7" value="Cambio credenciales" style="shape=module;align=left;spacingLeft=20;align=center;verticalAlign=top;whiteSpace=wrap;html=1;" vertex="1" parent="1">
          <mxGeometry x="95" y="390" width="95" height="50" as="geometry" />
        </mxCell>
        <mxCell id="AcFdQYXqhO_NafQ9ZpGH-8" value="Catalogo" style="shape=module;align=center;spacingLeft=20;align=center;verticalAlign=top;whiteSpace=wrap;html=1;" vertex="1" parent="1">
          <mxGeometry x="240" y="270" width="100" height="50" as="geometry" />
        </mxCell>
        <mxCell id="AcFdQYXqhO_NafQ9ZpGH-9" value="Devolucion" style="shape=module;align=left;spacingLeft=20;align=center;verticalAlign=top;whiteSpace=wrap;html=1;" vertex="1" parent="1">
          <mxGeometry x="240" y="330" width="100" height="50" as="geometry" />
        </mxCell>
        <mxCell id="AcFdQYXqhO_NafQ9ZpGH-10" value="Historial" style="shape=module;align=left;spacingLeft=20;align=center;verticalAlign=top;whiteSpace=wrap;html=1;" vertex="1" parent="1">
          <mxGeometry x="240" y="390" width="100" height="50" as="geometry" />
        </mxCell>
        <mxCell id="AcFdQYXqhO_NafQ9ZpGH-11" value="Clases" style="text;html=1;strokeColor=none;fillColor=none;align=center;verticalAlign=middle;whiteSpace=wrap;rounded=0;" vertex="1" parent="1">
          <mxGeometry x="1030" y="250" width="60" height="30" as="geometry" />
        </mxCell>
        <mxCell id="AcFdQYXqhO_NafQ9ZpGH-12" value="Datos" style="text;html=1;strokeColor=none;fillColor=none;align=center;verticalAlign=middle;whiteSpace=wrap;rounded=0;" vertex="1" parent="1">
          <mxGeometry x="1030" y="970" width="60" height="20" as="geometry" />
        </mxCell>
        <mxCell id="AcFdQYXqhO_NafQ9ZpGH-13" value="Info&lt;br&gt;User" style="shape=module;align=left;spacingLeft=20;align=center;verticalAlign=top;whiteSpace=wrap;html=1;" vertex="1" parent="1">
          <mxGeometry x="93" y="450" width="100" height="50" as="geometry" />
        </mxCell>
        <mxCell id="AcFdQYXqhO_NafQ9ZpGH-14" value="Ingresar" style="shape=module;align=left;spacingLeft=20;align=center;verticalAlign=top;whiteSpace=wrap;html=1;" vertex="1" parent="1">
          <mxGeometry x="93" y="510" width="100" height="50" as="geometry" />
        </mxCell>
        <mxCell id="AcFdQYXqhO_NafQ9ZpGH-15" value="Ingresar&lt;br&gt;Lote" style="shape=module;align=left;spacingLeft=20;align=center;verticalAlign=top;whiteSpace=wrap;html=1;" vertex="1" parent="1">
          <mxGeometry x="93" y="570" width="100" height="50" as="geometry" />
        </mxCell>
        <mxCell id="AcFdQYXqhO_NafQ9ZpGH-16" value="Ingresar&lt;br&gt;Medicamento" style="shape=module;align=left;spacingLeft=20;align=center;verticalAlign=top;whiteSpace=wrap;html=1;" vertex="1" parent="1">
          <mxGeometry x="240" y="450" width="100" height="50" as="geometry" />
        </mxCell>
        <mxCell id="AcFdQYXqhO_NafQ9ZpGH-17" value="Inicio&lt;br&gt;Administrador" style="shape=module;align=left;spacingLeft=20;align=center;verticalAlign=top;whiteSpace=wrap;html=1;" vertex="1" parent="1">
          <mxGeometry x="240" y="510" width="100" height="50" as="geometry" />
        </mxCell>
        <mxCell id="AcFdQYXqhO_NafQ9ZpGH-18" value="Inicio&lt;br&gt;Usuario" style="shape=module;align=left;spacingLeft=20;align=center;verticalAlign=top;whiteSpace=wrap;html=1;" vertex="1" parent="1">
          <mxGeometry x="240" y="570" width="100" height="50" as="geometry" />
        </mxCell>
        <mxCell id="AcFdQYXqhO_NafQ9ZpGH-20" value="Login" style="shape=module;align=left;spacingLeft=20;align=center;verticalAlign=top;whiteSpace=wrap;html=1;" vertex="1" parent="1">
          <mxGeometry x="93" y="640" width="100" height="50" as="geometry" />
        </mxCell>
        <mxCell id="AcFdQYXqhO_NafQ9ZpGH-21" value="Pedido" style="shape=module;align=left;spacingLeft=20;align=center;verticalAlign=top;whiteSpace=wrap;html=1;" vertex="1" parent="1">
          <mxGeometry x="240" y="640" width="100" height="50" as="geometry" />
        </mxCell>
        <mxCell id="AcFdQYXqhO_NafQ9ZpGH-22" value="Reportar" style="shape=module;align=left;spacingLeft=20;align=center;verticalAlign=top;whiteSpace=wrap;html=1;" vertex="1" parent="1">
          <mxGeometry x="93" y="710" width="100" height="50" as="geometry" />
        </mxCell>
        <mxCell id="AcFdQYXqhO_NafQ9ZpGH-23" value="ConectarBD" style="shape=module;align=left;spacingLeft=20;align=center;verticalAlign=top;whiteSpace=wrap;html=1;" vertex="1" parent="1">
          <mxGeometry x="650" y="260" width="100" height="50" as="geometry" />
        </mxCell>
        <mxCell id="AcFdQYXqhO_NafQ9ZpGH-24" value="Devolucion" style="shape=module;align=left;spacingLeft=20;align=center;verticalAlign=top;whiteSpace=wrap;html=1;" vertex="1" parent="1">
          <mxGeometry x="650" y="320" width="100" height="50" as="geometry" />
        </mxCell>
        <mxCell id="AcFdQYXqhO_NafQ9ZpGH-25" value="Direccion" style="shape=module;align=left;spacingLeft=20;align=center;verticalAlign=top;whiteSpace=wrap;html=1;" vertex="1" parent="1">
          <mxGeometry x="650" y="380" width="100" height="50" as="geometry" />
        </mxCell>
        <mxCell id="AcFdQYXqhO_NafQ9ZpGH-26" value="Factura" style="shape=module;align=left;spacingLeft=20;align=center;verticalAlign=top;whiteSpace=wrap;html=1;" vertex="1" parent="1">
          <mxGeometry x="650" y="440" width="100" height="50" as="geometry" />
        </mxCell>
        <mxCell id="AcFdQYXqhO_NafQ9ZpGH-27" value="Lista" style="shape=module;align=left;spacingLeft=20;align=center;verticalAlign=top;whiteSpace=wrap;html=1;" vertex="1" parent="1">
          <mxGeometry x="650" y="500" width="100" height="50" as="geometry" />
        </mxCell>
        <mxCell id="AcFdQYXqhO_NafQ9ZpGH-29" value="Lote" style="shape=module;align=left;spacingLeft=20;align=center;verticalAlign=top;whiteSpace=wrap;html=1;" vertex="1" parent="1">
          <mxGeometry x="650" y="560" width="100" height="50" as="geometry" />
        </mxCell>
        <mxCell id="AcFdQYXqhO_NafQ9ZpGH-30" value="Medicamento" style="shape=module;align=left;spacingLeft=20;align=center;verticalAlign=top;whiteSpace=wrap;html=1;" vertex="1" parent="1">
          <mxGeometry x="650" y="620" width="100" height="50" as="geometry" />
        </mxCell>
        <mxCell id="AcFdQYXqhO_NafQ9ZpGH-31" value="Program" style="shape=module;align=left;spacingLeft=20;align=center;verticalAlign=top;whiteSpace=wrap;html=1;" vertex="1" parent="1">
          <mxGeometry x="650" y="680" width="100" height="50" as="geometry" />
        </mxCell>
        <mxCell id="AcFdQYXqhO_NafQ9ZpGH-32" value="Usuario" style="shape=module;align=left;spacingLeft=20;align=center;verticalAlign=top;whiteSpace=wrap;html=1;" vertex="1" parent="1">
          <mxGeometry x="650" y="750" width="100" height="50" as="geometry" />
        </mxCell>
        <mxCell id="AcFdQYXqhO_NafQ9ZpGH-33" value="Datos" style="shape=module;align=left;spacingLeft=20;align=center;verticalAlign=top;whiteSpace=wrap;html=1;" vertex="1" parent="1">
          <mxGeometry x="630" y="990" width="100" height="50" as="geometry" />
        </mxCell>
      </root>
    </mxGraphModel>
  </diagram>
</mxfile>
